<svg xmlns="http://www.w3.org/2000/svg" width="54" height="8" viewBox="0 0 54 8">
  <g fill="none" fill-rule="evenodd">
    <polygon fill="#333E48" points="4 0 2.764 2.634 0 3.056 2 5.106 1.528 8 4 6.634 6.472 8 6 5.106 8 3.056 8 3.056 5.236 2.633"/>
    <polygon fill="#333E48" points="16 0 14.764 2.634 12 3.056 14 5.106 13.528 8 16 6.634 18.472 8 18 5.106 20 3.056 20 3.056 17.236 2.633"/>
    <polygon fill="#333E48" points="27 0 25.764 2.634 23 3.056 25 5.106 24.528 8 27 6.634 29.472 8 29 5.106 31 3.056 31 3.056 28.236 2.633"/>
    <polygon fill="#333E48" points="38 0 36.764 2.634 34 3.056 36 5.106 35.528 8 38 6.634 40.472 8 40 5.106 42 3.056 42 3.056 39.236 2.633"/>
    <polygon fill="#D3D1CF" points="50 0 48.764 2.634 46 3.056 48 5.106 47.528 8 50 6.634 52.472 8 52 5.106 54 3.056 54 3.056 51.236 2.633"/>
  </g>
</svg>
